<?xml version="1.0" encoding="utf-8"?> <!-- Generator: IcoMoon.io --> <!DOCTYPE svg PUBLIC "-//W3C//DTD SVG 1.1//EN" "http://www.w3.org/Graphics/SVG/1.1/DTD/svg11.dtd"> <svg width="352" height="32" viewBox="0 0 352 32" fill="#000000" xmlns="http://www.w3.org/2000/svg" xmlns:xlink="http://www.w3.org/1999/xlink"><path d="M 27.00,0.00 C 29.761,0.00 32.00,2.239 32.00,5.00 C 32.00,6.126 31.628,7.164 31.00,8.00 L 29.00,10.00 L 22.00,3.00 L 24.00,1.00 C 24.836,0.372 25.874,0.00 27.00,0.00 ZM 2.00,23.00L0.00,32.00l 9.00-2.00l 18.50-18.50L 20.50,4.50L 2.00,23.00z M 22.362,11.362l-14.00,14.00l-1.724-1.724l 14.00-14.00L 22.362,11.362zM 88.11,10.00c 0.566-0.403, 1.11-0.851, 1.608-1.348c 1.044-1.044, 1.742-2.328, 1.966-3.616 c 0.246-1.412-0.115-2.723-0.988-3.597c-0.697-0.697-1.641-1.065-2.73-1.065c-1.551,0.00-3.185,0.745-4.483,2.043 c-2.077,2.077-3.288,4.945-3.94,6.991c-0.482-2.056-1.444-4.833-3.313-6.702C 75.226,1.702, 73.944,1.188, 72.734,1.188 c-0.989,0.00-1.931,0.344-2.633,1.046c-1.562,1.562-1.351,4.306, 0.471,6.128c 0.65,0.65, 1.409,1.189, 2.21,1.638L 66.00,10.00 l0.00,8.00 l 2.00,0.00 l0.00,14.00 l 24.00,0.00 L 92.00,18.00 l 2.00,0.00 L 94.00,10.00 L 88.11,10.00 z M 85.073,4.007c 0.866-0.866, 1.948-1.384, 2.892-1.384c 0.334,0.00, 0.803,0.07, 1.139,0.406 c 0.813,0.813, 0.357,2.697-0.978,4.031c-1.373,1.373-3.221,2.318-4.826,2.939l-1.583,0.00 C 82.297,8.202, 83.344,5.736, 85.073,4.007z M 71.31,5.028c-0.022-0.285-0.002-0.82, 0.381-1.203 C 72.012,3.505, 72.435,3.438, 72.734,3.438l0.00,0.00 c 0.664,0.00, 1.358,0.313, 1.904,0.859c 1.058,1.058, 1.93,2.743, 2.521,4.871 c 0.016,0.058, 0.032,0.115, 0.047,0.171c-0.057-0.015-0.114-0.031-0.171-0.047c-2.128-0.591-3.813-1.462-4.871-2.521 C 71.668,6.277, 71.358,5.641, 71.31,5.028z M 78.00,30.00L 70.00,30.00 L 70.00,17.00 l 8.00,0.00 L 78.00,30.00 z M 78.00,16.00L 68.00,16.00 l0.00-4.00 l 10.00,0.00 L 78.00,16.00 z M 90.00,30.00L 82.00,30.00 L 82.00,17.00 l 8.00,0.00 L 90.00,30.00 z M 92.00,16.00L 82.00,16.00 l0.00-4.00 l 10.00,0.00 L 92.00,16.00 zM 153.00,4.00L 135.00,4.00 c-1.657,0.00-3.00,1.343-3.00,3.00l0.00,1.00 l 24.00,0.00 l0.00-1.00 C 156.00,5.343, 154.657,4.00, 153.00,4.00zM 147.76,2.00l 0.441,3.156L 139.799,5.156 l 0.441-3.156L 147.76,2.00 M 148.00,0.00L 140.00,0.00 c-0.825,0.00-1.593,0.668-1.708,1.486l-0.585,4.185 C 137.593,6.488, 138.175,7.156, 139.00,7.156l 10.00,0.00 c 0.825,0.00, 1.407-0.668, 1.292-1.486l-0.585-4.185C 149.593,0.668, 148.825,0.00, 148.00,0.00L 148.00,0.00z M 153.50,10.00L 134.50,10.00 c-1.10,0.00-1.919,0.896-1.819,1.992l 1.638,18.016C 134.418,31.104, 135.40,32.00, 136.50,32.00l 15.00,0.00 c 1.10,0.00, 2.082-0.896, 2.181-1.992l 1.638-18.016C 155.419,10.896, 154.60,10.00, 153.50,10.00z M 140.00,28.00l-3.00,0.00 l-1.00-14.00l 4.00,0.00 L 140.00,28.00 z M 146.00,28.00l-4.00,0.00 L 142.00,14.00 l 4.00,0.00 L 146.00,28.00 z M 151.00,28.00l-3.00,0.00 L 148.00,14.00 l 4.00,0.00 L 151.00,28.00zM 223.708,25.708c0.00,0.000.00,0.000.00,0.00L 214.00,16.00l 9.708-9.708c 0.00,0.00, 0.00,0.00, 0.00,0.00 c 0.104-0.105, 0.18-0.227, 0.229-0.357c 0.133-0.355, 0.057-0.771-0.229-1.057L 219.122,0.292c-0.286-0.286-0.702-0.361-1.057-0.229 c-0.13,0.048-0.252,0.124-0.357,0.228c0.00,0.000.00,0.000.00,0.00L 208.00,10.00L 198.292,0.292 c0.00,0.000.00,0.000.00,0.00c-0.105-0.104-0.227-0.18-0.357-0.228c-0.356-0.133-0.771-0.057-1.057,0.229L 192.292,4.878 c-0.286,0.286-0.361,0.702-0.229,1.057c 0.049,0.13, 0.124,0.252, 0.229,0.357c 0.00,0.00, 0.00,0.00, 0.00,0.00L 202.00,16.00 L 192.292,25.708c0.00,0.000.00,0.000.00,0.00c-0.104,0.105-0.18,0.227-0.229,0.357c-0.133,0.355-0.057,0.771, 0.229,1.057 l 4.586,4.586c 0.286,0.286, 0.702,0.361, 1.057,0.229c 0.13-0.049, 0.252-0.124, 0.357-0.229c 0.00,0.00, 0.00,0.00, 0.00,0.00 l 9.708-9.708l 9.708,9.708c 0.00,0.00, 0.00,0.00, 0.00,0.00c 0.105,0.104, 0.227,0.18, 0.357,0.229 c 0.356,0.133, 0.771,0.057, 1.057-0.229l 4.586-4.586c 0.286-0.286, 0.362-0.702, 0.229-1.057 C 223.888,25.935, 223.813,25.813, 223.708,25.708zM 283.00,4.00L 268.00,19.00L 261.00,12.00L 256.00,17.00L 268.00,29.00L 288.00,9.00 zM 351.00,12.00L 340.00,12.00 L 340.00,1.00 c0.00-0.552-0.448-1.00-1.00-1.00l-6.00,0.00 c-0.552,0.00-1.00,0.448-1.00,1.00l0.00,11.00 L 321.00,12.00 c-0.552,0.00-1.00,0.448-1.00,1.00l0.00,6.00 c0.00,0.552, 0.448,1.00, 1.00,1.00l 11.00,0.00 l0.00,11.00 c0.00,0.552, 0.448,1.00, 1.00,1.00l 6.00,0.00 c 0.552,0.00, 1.00-0.448, 1.00-1.00L 340.00,20.00 l 11.00,0.00 c 0.552,0.00, 1.00-0.448, 1.00-1.00l0.00-6.00 C 352.00,12.448, 351.552,12.00, 351.00,12.00z"></path></svg>